<?xml version="1.0" standalone="no"?>
<!DOCTYPE svg PUBLIC "-//W3C//DTD SVG 20010904//EN"
 "http://www.w3.org/TR/2001/REC-SVG-20010904/DTD/svg10.dtd">
<svg version="1.0" xmlns="http://www.w3.org/2000/svg"
 width="360.000000pt" height="360.000000pt" viewBox="0 0 360.000000 360.000000"
 preserveAspectRatio="xMidYMid meet">
<metadata>
Created by potrace 1.11, written by Peter Selinger 2001-2013
</metadata>
<g transform="translate(0.000000,360.000000) scale(0.100000,-0.100000)"
fill="#000000" stroke="none">
<path d="M1402 3420 c-1009 -4 -1224 -7 -1231 -18 -5 -8 -7 -57 -6 -110 1 -54
6 -775 10 -1604 7 -1370 10 -1508 24 -1509 46 -4 857 3 861 8 3 2 7 551 10
1218 3 667 9 1217 13 1222 5 4 69 8 143 8 126 0 135 -1 156 -23 l23 -23 5
-528 c3 -291 8 -532 11 -535 3 -4 32 28 65 71 150 200 457 475 704 630 77 48
247 143 256 143 4 0 45 18 92 41 206 99 504 175 725 186 72 3 131 11 136 17
19 23 24 108 23 386 -2 422 -2 438 -12 415 -7 -16 -9 -17 -9 -3 -1 15 -32 16
-388 15 -214 -1 -938 -4 -1611 -7z"/>
<path d="M3110 2305 c-540 -89 -1138 -503 -1486 -1028 -68 -101 -174 -301
-174 -327 0 -8 -6 -27 -14 -41 -10 -20 -14 -108 -17 -375 l-4 -349 950 -3
c523 -1 968 0 991 3 31 4 44 12 53 31 8 18 11 305 11 1057 0 976 -1 1033 -17
1034 -110 11 -221 10 -293 -2z"/>
</g>
</svg>
