<?xml version="1.0" standalone="no"?>
<!DOCTYPE svg PUBLIC "-//W3C//DTD SVG 20010904//EN"
 "http://www.w3.org/TR/2001/REC-SVG-20010904/DTD/svg10.dtd">
<svg version="1.0" xmlns="http://www.w3.org/2000/svg"
 width="360.000000pt" height="360.000000pt" viewBox="0 0 360.000000 360.000000"
 preserveAspectRatio="xMidYMid meet">
<metadata>
Created by potrace 1.11, written by Peter Selinger 2001-2013
</metadata>
<g transform="translate(0.000000,360.000000) scale(0.100000,-0.100000)"
fill="#000000" stroke="none">
<path d="M1382 3420 c-1055 -4 -1204 -7 -1212 -20 -6 -9 -7 -173 -4 -420 4
-223 9 -945 13 -1605 l6 -1200 434 3 c239 1 437 5 440 8 4 3 7 547 9 1209 l2
1204 28 21 c25 21 36 22 145 18 105 -4 120 -6 140 -26 l22 -23 5 -528 c4 -469
10 -581 28 -532 13 37 176 223 290 330 234 221 428 360 676 486 321 162 583
238 874 252 67 3 125 9 127 13 14 22 18 119 19 415 1 182 -1 347 -2 367 l-4
37 -416 -2 c-230 -1 -958 -4 -1620 -7z"/>
<path d="M3090 2304 c-219 -40 -541 -176 -755 -320 -315 -211 -585 -489 -760
-782 -69 -115 -135 -254 -135 -284 0 -9 -5 -18 -11 -20 -8 -3 -12 -105 -13
-358 l-1 -355 970 -3 c534 -1 979 0 991 3 11 2 26 16 32 30 9 19 12 291 12
1060 0 977 -1 1034 -17 1035 -147 9 -240 7 -313 -6z"/>
</g>
</svg>
